<?xml version="1.0" encoding="iso-8859-1"?>
<!-- Generator: Adobe Illustrator 16.0.0, SVG Export Plug-In . SVG Version: 6.00 Build 0)  -->
<!DOCTYPE svg PUBLIC "-//W3C//DTD SVG 1.1//EN" "http://www.w3.org/Graphics/SVG/1.1/DTD/svg11.dtd">
<svg version="1.1" id="Capa_1" xmlns="http://www.w3.org/2000/svg" xmlns:xlink="http://www.w3.org/1999/xlink" x="0px" y="0px"
	 width="389.262px" height="389.262px" viewBox="0 0 389.262 389.262" style="enable-background:new 0 0 389.262 389.262;"
	 xml:space="preserve">
<g>
	<path d="M374.262,100.143c8.284,0,15-6.716,15-15V66.121c0-8.284-6.716-15-15-15h-36.119V15c0-8.284-6.716-15-15-15H304.12
		c-8.284,0-15,6.716-15,15V51.12H100.143V15c0-8.284-6.716-15-15-15H66.12c-8.284,0-15,6.716-15,15V51.12H15
		c-8.284,0-15,6.716-15,15v19.022c0,8.284,6.716,15,15,15h36.119V289.12H15c-8.284,0-15,6.716-15,15v19.023
		c0,8.283,6.716,14.999,15,14.999h36.119v36.119c0,8.284,6.716,15,15,15h19.023c8.284,0,15-6.716,15-15v-36.119h188.977v36.119
		c0,8.284,6.716,15,15,15h19.022c8.284,0,15-6.716,15-15v-36.119h36.119c8.284,0,15-6.716,15-14.999V304.12c0-8.284-6.716-15-15-15
		h-36.119V100.143H374.262z M289.119,100.143v188.978H100.143V100.143H289.119z"/>
</g>
<g>
</g>
<g>
</g>
<g>
</g>
<g>
</g>
<g>
</g>
<g>
</g>
<g>
</g>
<g>
</g>
<g>
</g>
<g>
</g>
<g>
</g>
<g>
</g>
<g>
</g>
<g>
</g>
<g>
</g>
</svg>
